<?xml version="1.0" encoding="UTF-8"?>
<svg id="a" xmlns="http://www.w3.org/2000/svg" version="1.1" viewBox="0 0 17 17">
  <!-- Generator: Adobe Illustrator 29.6.1, SVG Export Plug-In . SVG Version: 2.1.1 Build 9)  -->
  <defs>
    <style>
      .st0 {
        fill: none;
      }
    </style>
  </defs>
  <g id="b">
    <path class="st0" d="M8.5,0h0c4.7,0,8.5,3.8,8.5,8.5h0c0,4.7-3.8,8.5-8.5,8.5h0C3.8,17,0,13.2,0,8.5h0C0,3.8,3.8,0,8.5,0Z"/>
    <path d="M8.5,17C3.8,17,0,13.2,0,8.5S3.8,0,8.5,0s8.5,3.8,8.5,8.5-3.8,8.5-8.5,8.5ZM8.5,1C4.4,1,1,4.4,1,8.5s3.4,7.5,7.5,7.5,7.5-3.4,7.5-7.5S12.6,1,8.5,1Z"/>
  </g>
  <polygon points="10.9 6.9 8.6 9.2 6.3 6.9 5.6 7.6 8.6 10.7 9.3 9.9 11.6 7.6 10.9 6.9"/>
</svg>