<?xml version="1.0" encoding="UTF-8"?>
<svg id="Layer_1" xmlns="http://www.w3.org/2000/svg" version="1.1" viewBox="0 0 17 17">
  <!-- Generator: Adobe Illustrator 29.6.1, SVG Export Plug-In . SVG Version: 2.1.1 Build 9)  -->
  <defs>
    <style>
      .st0 {
        fill: #fff;
      }
    </style>
  </defs>
  <path class="st0" d="M8.5,0h0c4.7,0,8.5,3.8,8.5,8.5h0c0,4.7-3.8,8.5-8.5,8.5h0C3.8,17,0,13.2,0,8.5h0C0,3.8,3.8,0,8.5,0Z"/>
  <path d="M7,3.6c3-.2,5,2.9,3.5,5.5s-.3.4-.3.5l3.2,3.2c.3.3-.3.9-.6.6l-3.3-3.3c-1.5,1.2-3.4,1.1-4.8-.2-2.3-2.2-.9-6.2,2.2-6.4ZM7.2,4.4c-2,0-3.4,2.2-2.5,4.1s3.8,2.3,5,.3-.2-4.4-2.5-4.4Z"/>
</svg>