<?xml version="1.0" encoding="UTF-8"?>
<svg id="Ebene_1" xmlns="http://www.w3.org/2000/svg" version="1.1" viewBox="0 0 2740.2 621.5">
  <!-- Generator: Adobe Illustrator 29.6.1, SVG Export Plug-In . SVG Version: 2.1.1 Build 9)  -->
  <path d="M2333.3,377.2l115.8-290.3,115.8,290.3h-231.6,0ZM2161.3,621.5h74.1l70.7-176.2h286.1l70.7,176.2h77.5L2493.3,0h-86.9l-245.2,621.5ZM2013.5,621.5h84.3v-84.5h-84.3v84.5h0ZM1492.6,621.5h437.6v-68.1h-363.6v-216.3h327.8v-69.8h-327.8V67.3h355.9V0h-430v621.5h0ZM1321.1,621.5h84.3v-84.5h-84.3v84.5ZM826.7,0h-99.6v621.5h72.4V93.7l356.8,527.9h77.5V0h-72.4v504.9L826.7,0ZM564.5,621.5h74.1V0h-74.1v621.5ZM392.1,621.5h84.3v-84.5h-84.3v84.5ZM272.5,66.4c82.6,0,127.7,39.2,127.7,113.2s-46,113.2-128.6,113.2H74.1V66.4h198.4ZM281,360.2c125.2,0,195.8-68.1,195.8-180.5S407.8,0,281,0H0v621.5h74.1v-261.4h206.9"/>
</svg>