<?xml version="1.0" encoding="UTF-8"?>
<svg id="Ebene_1" data-name="Ebene 1" xmlns="http://www.w3.org/2000/svg" viewBox="0 0 2800 690.32">
  <path d="M2363.14,411.57l115.79-290.34,115.79,290.34h-231.59ZM2191.15,655.93h74.07l70.67-176.25h286.08l70.67,176.25h77.48l-246.91-621.54h-86.85l-245.21,621.54ZM2043.34,655.93h84.29v-84.54h-84.29v84.54ZM1522.49,655.93h437.63v-68.11h-363.56v-216.26h327.8v-69.82h-327.8V101.65h355.89V34.39h-429.97v621.54ZM1350.99,655.93h84.29v-84.54h-84.29v84.54ZM856.6,34.39h-99.62v621.54h72.37V128.05l356.75,527.88h77.48V34.39h-72.37v504.9L856.6,34.39ZM594.36,655.93h74.07V34.39h-74.07v621.54ZM421.94,655.93h84.29v-84.54h-84.29v84.54ZM302.34,100.8c82.59,0,127.71,39.16,127.71,113.24s-45.98,113.24-128.56,113.24H103.95V100.8h198.38ZM310.85,394.54c125.16,0,195.83-68.11,195.83-180.5S437.71,34.39,310.85,34.39H29.88v621.54h74.07v-261.39h206.9"/>
</svg>