<?xml version="1.0" encoding="UTF-8"?>
<svg id="Ebene_1" data-name="Ebene 1" xmlns="http://www.w3.org/2000/svg" viewBox="0 0 2800 690.32">
  <path d="M2362.89,411.56l115.76-290.26,115.76,290.26h-231.53ZM2190.94,655.85h74.05l70.65-176.2h286l70.65,176.2h77.46l-246.85-621.38h-86.82l-245.15,621.38ZM2043.17,655.85h84.27v-100.44h-84.27v100.44ZM1522.46,655.85h437.52v-68.09h-363.46v-216.21h327.71v-69.8h-327.71V101.71h355.8V34.47h-429.86v621.38ZM1351,655.85h84.27v-100.44h-84.27v100.44ZM856.74,34.47h-99.59v621.38h72.35V128.1l356.65,527.75h77.46V34.47h-72.35v504.77L856.74,34.47ZM594.57,655.85h74.05V34.47h-74.05v621.38ZM422.19,655.85h84.27v-100.44h-84.27v100.44ZM302.63,100.86c82.56,0,127.68,39.15,127.68,113.21s-45.97,113.21-128.53,113.21H104.29V100.86h198.33ZM311.14,394.53c125.13,0,195.78-68.09,195.78-180.45S437.97,34.47,311.14,34.47H30.24v621.38h74.05v-261.32h206.84"/>
</svg>