<?xml version="1.0" encoding="UTF-8"?>
<svg id="Ebene_1" xmlns="http://www.w3.org/2000/svg" version="1.1" viewBox="0 0 2739.5 621.4">
  <!-- Generator: Adobe Illustrator 29.6.1, SVG Export Plug-In . SVG Version: 2.1.1 Build 9)  -->
  <path d="M2332.6,377.1l115.8-290.3,115.8,290.3h-231.5,0ZM2160.7,621.4h74.1l70.6-176.2h286l70.6,176.2h77.5L2492.7,0h-86.8l-245.1,621.4h0ZM2012.9,621.4h84.3v-100.4h-84.3v100.4h0ZM1492.2,621.4h437.5v-68.1h-363.5v-216.2h327.7v-69.8h-327.7V67.2h355.8V0h-429.9v621.4h0ZM1320.8,621.4h84.3v-100.4h-84.3v100.4ZM826.5,0h-99.6v621.4h72.3V93.6l356.7,527.7h77.5V0h-72.3v504.8L826.5,0ZM564.3,621.4h74V0h-74v621.4ZM392,621.4h84.3v-100.4h-84.3v100.4ZM272.4,66.4c82.6,0,127.7,39.2,127.7,113.2s-46,113.2-128.5,113.2H74.1V66.4h198.3ZM280.9,360.1c125.1,0,195.8-68.1,195.8-180.4S407.7,0,280.9,0H0v621.4h74.1v-261.3h206.8"/>
</svg>