<?xml version="1.0" encoding="UTF-8"?>
<svg id="Layer_1" xmlns="http://www.w3.org/2000/svg" version="1.1" viewBox="0 0 128 128">
  <!-- Generator: Adobe Illustrator 29.6.1, SVG Export Plug-In . SVG Version: 2.1.1 Build 9)  -->
  <path d="M109.2,112.7c2.2-2,3.5-4.7,3.8-7.6v-33.3c.7-4.9,7.3-4.9,8,0-.4,10.8.6,22.1,0,32.9-.5,9.9-8.2,18.2-18.2,19H25.2c-10.1-.9-18.1-9.5-18.2-19.7v-38.3c.4-11.9-.5-24.1,0-36S14.6,11,25.2,9.9h34.1c3.2.5,4.5,4.5,2.2,6.8s-2.2,1.1-3.5,1.2c-9.6.6-19.8-.3-29.5-.1-6.9-.5-13,4.2-13.5,11.3v75.6c.3,4.7,3.4,8.9,7.8,10.5s5.8.7,8.8.7c20.9,0,41.8,0,62.7,0,5.5,0,10.4,1,14.9-3Z"/>
  <path d="M113,23.8s-.2-.2-.3-.2c0,.2-.1.3-.3.5-2.1,2.1-4.2,4.2-6.3,6.3-11.4,11.4-22.8,22.9-34.3,34.2-3.1,2.4-7.4-.2-6.4-4.1s1.9-2.3,2.7-3.5l38.9-38.8c0-.3-.1-.2-.3-.2-5.6-.4-11.6,0-17.2,0-1.5,0-4.6.1-5.9-.3-3.6-1.3-3.2-6.7.5-7.6h33.3c2,.3,3.4,1.8,3.5,3.8v32.5c-.6,3.5-5.3,4.7-7.3,1.6s-.7-1.5-.7-1.7v-22.3Z"/>
</svg>