<?xml version="1.0" encoding="UTF-8"?>
<svg id="Layer_1" xmlns="http://www.w3.org/2000/svg" version="1.1" viewBox="0 0 128 128">
  <!-- Generator: Adobe Illustrator 29.6.1, SVG Export Plug-In . SVG Version: 2.1.1 Build 9)  -->
  <path d="M91.5,121.2H26.5c-11-3.3-17.7-10.1-21.1-21.1V35.1c0-7.5,6.6-14.7,14-18.5s5.7-2.6,6.6-2.6h40.3c3,0,3,7.5,0,7.5H29.7c-6.1,0-15.6,8.5-16,14.5-1.1,18.3.5,42.5,0,61.8,1.2,7.1,7.8,13.7,15,15,17.6,0,40.3.4,61.3-.1s14.5-9.9,14.5-15.8v-36.6c0-3,8-3,8,0v40.3c0,.9-2,5.4-2.6,6.6-3.8,7.4-10.7,11.8-18.5,14Z"/>
  <path d="M81.4,4h41.2v41.2c-2.5,4.3-7.8,1.8-7.8-2.5v-25.9l-52.2,53.5c-5.1,4.7-11-.6-6.3-5.7L108.8,11.8h-25.5c-4.3,0-6.2-5.3-1.9-7.8Z"/>
</svg>