<?xml version="1.0" encoding="UTF-8"?>
<svg id="Layer_1" xmlns="http://www.w3.org/2000/svg" version="1.1" viewBox="0 0 128 128">
  <!-- Generator: Adobe Illustrator 29.6.1, SVG Export Plug-In . SVG Version: 2.1.1 Build 9)  -->
  <path d="M91.5,121.2H26.5c-11.1,0-21.1-10.9-21.1-21.1V35.1c0-7.5,4.4-12.5,9-16.3s11.5-4.8,15.1-4.8h36.7c3,0,3,7.5,0,7.5H29.7c-6.1,0-16,7.5-16,14.5,0,18.3.5,42.5,0,61.8,0,8.4,7.7,15,15,15,17.6,0,40.3,0,61.3,0s14.5-6.6,14.5-15.8v-36.6c0-3,8-3,8,0v40.3c0,.9-1.9,7.4-4.6,11.2-5.6,6.3-11,9.4-16.5,9.4h0Z"/>
  <path d="M81.4,4h41.2v41.2c-2.5,4.3-7.8,1.8-7.8-2.5v-25.9l-52.2,53.5c-5.1,4.7-11-.6-6.3-5.7L108.8,11.8h-25.5c-4.3,0-6.2-5.3-1.9-7.8Z"/>
</svg>