<?xml version="1.0" encoding="UTF-8"?>
<svg id="Layer_1" xmlns="http://www.w3.org/2000/svg" version="1.1" viewBox="0 0 146.8 40.1">
  <!-- Generator: Adobe Illustrator 29.6.1, SVG Export Plug-In . SVG Version: 2.1.1 Build 9)  -->
  <g id="Group_699">
    <g id="Group_700">
      <g id="Group_693">
        <path id="Path_205" d="M115.5,33h1v2.9c0,.9.6,1.6,1.4,1.7h.2c.4,0,.8,0,1.1-.3l-.4-.8c-.2,0-.4.2-.6.2-.5,0-.8-.3-.8-.8v-2.9h1.7v-.9h-1.7v-1.6h-1v1.6h-1v.9h.1ZM113.8,32c-.6,0-1.2.4-1.5,1v-.8h-.9v5.3h1v-3.7c.2-.5.7-.8,1.2-.9.2,0,.4,0,.6,0l.4-.9c-.2,0-.5-.1-.8-.1M106.8,36.7c-1,0-1.8-.8-1.8-1.8h0c0-1.1.7-1.9,1.7-2,1,0,1.8.7,1.9,1.7v.2c0,1-.7,1.8-1.7,1.9h0M106.8,32c-1.5,0-2.7,1.2-2.7,2.7h0c0,1.5,1.2,2.8,2.7,2.8s2.8-1.2,2.8-2.7h0c0-1.6-1.1-2.9-2.6-2.9h0M98.4,33.8c.3-.5.9-.9,1.6-.9,1,0,1.8.8,1.8,1.8h0c0,1.1-.7,1.9-1.6,2h0c-.6,0-1.2-.4-1.6-.9v-2h-.1ZM97.4,32.1v8h1v-3.3c.4.5,1,.8,1.7.8,1.5,0,2.6-1.3,2.6-2.8h0c0-1.5-1.1-2.7-2.5-2.8h0c-.7,0-1.4.3-1.8.9v-.8h-1ZM94.4,35.4c0,.7-.7,1.3-1.4,1.3h0c-.8,0-1.5-.5-1.8-1.2l-.8.5c.4,1,1.5,1.7,2.6,1.7,1.2,0,2.4-.8,2.5-2v-.2c0-1.3-.8-1.8-2-2.4-1.1-.5-1.8-.8-1.8-1.6s.6-1.2,1.3-1.2h0c.6,0,1.2.3,1.6.8l.7-.6c-.5-.7-1.4-1.2-2.3-1.2s-2.3.9-2.3,2.1h0c0,1.4,1,1.9,2.2,2.5.9.4,1.6.7,1.6,1.6M83.7,35.8c-.3.6-.9.9-1.6.9-1,0-1.8-.8-1.8-1.8h0c0-1.1.7-1.9,1.7-2h0c.6,0,1.2.4,1.6.9,0,0,0,2,0,2ZM82,32c-1.5,0-2.6,1.3-2.6,2.8h0c0,1.5,1.1,2.7,2.5,2.8h0c.7,0,1.4-.3,1.8-.9v.8h.9v-8.7h-1v4c-.4-.5-1-.8-1.7-.8M75.6,32c-.7,0-1.3.3-1.6.9v-.7h-.9v5.3h1v-3.7c.3-.5.8-.8,1.3-.9.6,0,1.2.4,1.3,1.1v3.5h1v-3.4c0-1.1-.8-2-1.8-2h-.2M68.4,37.6c.7,0,1.3-.4,1.6-1v.8h.9v-5.3h-1v3.7c-.3.5-.8.8-1.3.9-.6,0-1.2-.4-1.3-1.1v-3.5h-1v3.4c0,1.1.8,2,1.8,2h.2M58.1,32c-.7,0-1.3.3-1.6.9v-.7h-.9v5.3h1v-3.7c.3-.5.8-.8,1.3-.9.6,0,1.2.4,1.3,1.1v3.5h1v-3.4c0-1.1-.8-2-1.8-2h-.2M49.5,34.3c0-.8.8-1.5,1.7-1.4.8,0,1.6.6,1.7,1.4h-3.4ZM51.2,32c-1.5,0-2.7,1.2-2.7,2.6v.2c0,1.5,1.1,2.8,2.6,2.8h0c.9,0,1.7-.4,2.2-1l-.6-.6c-.4.5-1,.8-1.6.8-.9,0-1.7-.6-1.8-1.6h4.3v-.3c0-1.4-.9-2.7-2.4-2.8h-.2M45.4,30.4c0,.4.3.7.7.7s.7-.3.7-.7-.3-.7-.7-.7h0c-.4,0-.7.3-.7.7M46.5,37.5v-5.3h-1v5.3h1ZM42.2,34.8v.7c0,.7-1,1.3-1.7,1.3-1,0-1.8-.8-1.8-1.8h0c0-1.1.7-1.9,1.7-2h0c.6,0,1.2.4,1.6.9v.9c0,0,0,0,0,0ZM40.4,32c-1.5,0-2.6,1.3-2.6,2.8h0c0,1.5,1.1,2.7,2.5,2.8h0c.7,0,1.4-.3,1.8-.9v.8h.9v-8.7h-1v4c-.4-.5-1-.8-1.7-.8M32.1,34.3c0-.8.8-1.5,1.7-1.4.8,0,1.6.6,1.6,1.4h-3.3ZM33.8,32c-1.5,0-2.7,1.2-2.7,2.6v.2c0,1.5,1.1,2.8,2.6,2.8h0c.9,0,1.7-.4,2.2-1l-.6-.6c-.4.5-1,.8-1.6.8-.9,0-1.7-.6-1.8-1.6h4.3v-.3c0-1.4-.9-2.7-2.4-2.8h-.2M21.7,29.4v8.1h1v-6.3l2.7,4.5,2.7-4.5v6.3h1v-8.1h-.9l-2.8,4.5-2.8-4.5h-1,0Z"/>
      </g>
      <g id="Group_694">
        <path id="Path_206" d="M145,24.7l.8.3,1-2.7-.9-.3-.9,2.7h0ZM144,17.6c-.6,0-1.2.4-1.5,1v-.8h-.9v5.3h1v-3.7c.2-.5.7-.8,1.2-.9.2,0,.4,0,.6.1l.4-.9c-.2,0-.5-.1-.8-.1M137,23.2c.7,0,1.3-.4,1.6-1v.8h.9v-5.3h-1v3.7c-.3.5-.8.8-1.3.9-.6,0-1.2-.4-1.3-1.1v-3.5h-1v3.4c0,1.1.8,2,1.8,2h.2M129.5,18.6h1v2.9c0,.9.6,1.6,1.4,1.7h.2c.4,0,.8-.1,1.1-.3l-.4-.8c-.2.1-.4.2-.6.2-.4,0-.7-.2-.8-.6v-3.1h1.7v-.9h-1.7v-1.6h-1v1.6h-1v.9h.1ZM127.6,23.1v-8.7h-1v8.7h1ZM126.6,23.1h-4.9c.7.1,1.3-.2,1.6-.8v.8h.9v-5.3h-1v3.7c-.3.5-.8.8-1.3.9-.6,0-1.2-.4-1.3-1.1v-3.5h-1v3.4c0,1.1.8,2,1.8,2h.2M113.4,15h-1v8.1h1v-3.8l3.6,3.8h1.3l-3.8-4.1,3.4-3.9h-1.2l-3.3,3.8v-3.8h0ZM104.8,24.7l.8.3,1-2.7-.9-.3-.9,2.7ZM99.8,18.6h1v2.9c0,.9.6,1.6,1.4,1.7h.2c.4,0,.8-.1,1.1-.3l-.4-.8c-.2.1-.4.2-.6.2-.5,0-.8-.3-.8-.8v-2.9h1.7v-.9h-1.7v-1.6h-1v1.6h-1v.9h.1ZM93.9,22.1c.5.7,1.4,1.1,2.3,1.1s2.1-.5,2.1-1.6-.9-1.5-1.9-1.7c-.9-.2-1.3-.4-1.3-.8s.3-.7,1-.7,1,.2,1.3.6l.6-.7c-.5-.5-1.2-.8-2-.8-1-.1-1.8.6-2,1.5,0,1,.8,1.5,1.9,1.7.8.2,1.2.4,1.2.9s-.6.7-1.2.7-1.2-.3-1.6-.9l-.7.6h.3ZM90.1,17.6c-.7,0-1.3.3-1.6.9v-.7h-.9v5.3h1v-3.7c.3-.5.8-.8,1.3-.9.6,0,1.2.4,1.3,1.1v3.5h1v-3.4c0-1.1-.8-2-1.8-2h-.2M82.9,23.2c.7,0,1.3-.4,1.6-1v.8h.9v-5.3h-1v3.7c-.3.5-.8.8-1.3.9-.6,0-1.2-.4-1.3-1.1v-3.5h-1v3.4c0,1.1.8,2,1.8,2h.2M74.6,15h-1v8.1h1v-3.8l3.6,3.8h1.3l-3.8-4.1,3.4-3.9h-1.2l-3.2,3.8v-3.8h-.1ZM66,24.7l.8.3,1-2.7-.9-.3-.9,2.7ZM62.3,17.6c-.7,0-1.3.3-1.6.9v-.7h-.9v5.3h1v-3.7c.3-.5.8-.8,1.3-.9.6,0,1.2.4,1.3,1.1v3.5h1v-3.4c0-1.1-.8-2-1.8-2h-.2M53.7,20c0-.8.8-1.5,1.7-1.4.8,0,1.6.6,1.6,1.4h-3.3ZM55.3,17.6c-1.5,0-2.7,1.2-2.7,2.6v.2c0,1.5,1.1,2.8,2.6,2.8h0c.9,0,1.7-.4,2.2-1.1l-.6-.6c-.4.5-1,.8-1.6.8-.9,0-1.7-.6-1.8-1.6h4.3v-.3c0-1.4-.9-2.7-2.4-2.8h-.2M48.9,17.6c-.7,0-1.3.3-1.6.9v-.7h-.9v5.3h1v-3.7c.3-.5.8-.8,1.3-.9.6,0,1.2.4,1.3,1.1v3.5h1v-3.4c0-1.1-.8-2-1.8-2h-.2M42.2,17.6c-.6,0-1.2.3-1.6.8v-4h-1v8.7h1v-3.7c.3-.5.8-.8,1.3-.9.6,0,1.2.4,1.3,1.1v3.5h1v-3.4c0-1.1-.8-2-1.8-2h-.2M34.9,22.3c-1,0-1.8-.8-1.8-1.8h0c0-1.1.7-1.9,1.7-2,1,0,1.8.7,1.9,1.7v.2c0,1-.7,1.8-1.7,1.9h0M34.9,17.6c-1.5,0-2.7,1.2-2.7,2.7h0c0,1.5,1.2,2.8,2.7,2.8s2.8-1.2,2.8-2.7h0c0-1.6-1.1-2.9-2.6-2.9h0M31.6,15h-1l-2.1,5.6-1.9-5.6h-.7l-2,5.6-2-5.6h-1.1l3.1,8.3,2.3-6.3,2.3,6.3s3.1-8.3,3.1-8.3Z"/>
      </g>
      <g id="Group_695">
        <path id="Path_207" d="M123.1,3.2c-.7,0-1.3.4-1.6,1-.3-.7-.9-1-1.7-1s-1.2.4-1.5.9v-.8h-.9v5.3h1v-3.7c.2-.5.6-.8,1.1-.9.7,0,1.1.4,1.1,1.3v3.3h1v-3.7c.2-.5.6-.8,1.1-.9.7,0,1.1.4,1.1,1.3v3.3h1v-3.4c0-1-.6-1.9-1.5-2h-.3M112.8,8.8c.7,0,1.3-.4,1.6-1v.8h.9V3.4h-1v3.7c-.3.5-.8.8-1.3.9-.6,0-1.2-.4-1.3-1.1v-3.5h-1v3.4c0,1.1.8,2,1.8,2h.2M107.4,1.7c0,.4.3.7.7.7s.7-.3.7-.7-.3-.7-.7-.7h0c-.4,0-.7.3-.7.7M108.5,8.7V3.4h-1v5.3s1,0,1,0ZM105.1,3.2c-.6,0-1.2.4-1.5,1v-.8h-.9v5.3h1v-3.7c.2-.5.7-.8,1.2-.9.2,0,.4,0,.6,0l.4-.9c-.2,0-.5,0-.8,0M96.7,5.6c0-.8.8-1.5,1.7-1.4.8,0,1.6.6,1.6,1.4,0,0-3.3,0-3.3,0ZM98.4,3.2c-1.5,0-2.7,1.2-2.7,2.6v.2c0,1.5,1.1,2.8,2.6,2.8h0c.9,0,1.7-.4,2.2-1l-.6-.6c-.4.5-1,.8-1.6.8-.9,0-1.7-.6-1.8-1.6h4.3v-.3c0-1.4-.9-2.7-2.4-2.8h-.2M90.6,4.3h1v2.9c0,.9.6,1.6,1.4,1.7h.2c.4,0,.8-.1,1.1-.3l-.4-.8c-.2,0-.4.2-.6.2-.4,0-.7-.3-.8-.6v-3.1h1.7v-.9h-1.7v-1.6h-1v1.6h-1v.9h.1ZM84.8,7.7c.5.7,1.4,1.1,2.3,1.1s2.1-.5,2.1-1.6-.9-1.5-1.9-1.7c-.9-.2-1.3-.4-1.3-.8s.3-.7,1-.7,1,.2,1.3.6l.6-.7c-.5-.5-1.2-.8-2-.8-1,0-1.8.6-2,1.5,0,1,.8,1.4,1.9,1.7.8.2,1.2.4,1.2.9s-.6.7-1.2.7-1.2-.3-1.6-.9l-.7.6h.3ZM81.7,1.7c0,.4.3.7.7.7s.7-.3.7-.7-.3-.7-.7-.7h0c-.4,0-.7.3-.7.7M82.8,8.7V3.4h-1v5.3s1,0,1,0ZM77.5,3.2c-.7,0-1.3.3-1.6.9v-.7h-.9v5.3h1v-3.7c.3-.5.8-.8,1.3-.9.6,0,1.2.4,1.3,1.1v3.5h1v-3.4c0-1.1-.8-2-1.8-2h-.2M71.5,1.7c0,.4.3.7.7.7s.7-.3.7-.7-.3-.7-.7-.7h0c-.4,0-.7.3-.7.7M72.6,8.7V3.4h-1v5.3s1,0,1,0ZM67.5,3.2c-.7,0-1.3.4-1.6,1-.3-.7-1-1-1.7-1s-1.2.4-1.5.9v-.8h-.9v5.3h1v-3.7c.2-.5.6-.8,1.1-.9.7,0,1.1.4,1.1,1.3v3.3h1v-3.7c.2-.5.6-.8,1.1-.9.7,0,1.1.4,1.1,1.3v3.3h1v-3.4c0-1-.6-1.9-1.5-2h-.3M55.6,7.7c.5.7,1.4,1.1,2.3,1.1s2.1-.5,2.1-1.6-.9-1.5-1.9-1.7c-.9-.2-1.3-.4-1.3-.8s.3-.7,1-.7,1,.2,1.3.6l.6-.7c-.5-.5-1.2-.8-2-.8-1,0-1.8.6-2,1.5,0,1,.8,1.4,1.9,1.7.8.2,1.2.4,1.2.9s-.6.7-1.2.7-1.2-.3-1.6-.9l-.7.6h.3ZM49.9,5.6c0-.8.8-1.5,1.7-1.4.8,0,1.6.6,1.6,1.4h-3.3ZM51.6,3.2c-1.5,0-2.7,1.2-2.7,2.6v.2c0,1.5,1.1,2.8,2.6,2.8h0c.9,0,1.7-.4,2.2-1l-.6-.6c-.4.5-1,.8-1.6.8-.9,0-1.7-.6-1.8-1.6h4.3v-.3c0-1.4-.9-2.7-2.4-2.8h-.2M45.9,7c-.3.6-.9.9-1.6.9-1,0-1.8-.8-1.8-1.8h0c0-1.1.7-1.9,1.6-2h0c.6,0,1.2.4,1.6.9v2h.1ZM44.2,3.2c-1.5,0-2.6,1.3-2.6,2.8h0c0,1.5,1.1,2.7,2.5,2.8h0c.7,0,1.4-.3,1.8-.9v.8h.9V0h-1v4c-.4-.5-1.1-.8-1.7-.8M37.9,3.2c-.7,0-1.3.3-1.6.9v-.7h-.9v5.3h1v-3.7c.3-.5.8-.8,1.3-.9.6,0,1.2.4,1.3,1.1v3.5h1v-3.4c0-1.1-.8-2-1.8-2h-.2M30.6,8.8c.7,0,1.3-.4,1.6-1v.8h.9V3.4h-1v3.7c-.3.5-.8.8-1.3.9-.6,0-1.2-.4-1.3-1.1v-3.5h-1v3.4c0,1.1.8,2,1.8,2h.2M22.6,4.1V1.6h1.3c.9,0,1.5.5,1.5,1.3s-.6,1.3-1.5,1.3h-1.3ZM24.2,7.8h-1.6v-2.8h1.6c1.2,0,1.7.6,1.7,1.4s-.5,1.4-1.7,1.4M21.7,8.7h2.5c1.3.2,2.4-.7,2.6-2v-.3c0-.9-.5-1.7-1.3-2,.6-.3.9-.9.9-1.6,0-1.3-.9-2.2-2.6-2.2h-2.1v8.1Z"/>
      </g>
    </g>
    <g id="Group_697">
      <path id="Path_209" d="M12.6.6H0l1.3,2.7h11.3V.6Z"/>
    </g>
    <g id="Group_698">
      <path id="Path_210" d="M12.6,6H2.5l1.3,2.7h8.8v-2.7Z"/>
    </g>
  </g>
</svg>