<?xml version="1.0" encoding="UTF-8"?>
<svg id="Layer_1" xmlns="http://www.w3.org/2000/svg" version="1.1" viewBox="0 0 1279 474.2">
  <!-- Generator: Adobe Illustrator 29.6.1, SVG Export Plug-In . SVG Version: 2.1.1 Build 9)  -->
  <polygon points="109 5 109 29 11.5 29 0 5 109 5"/>
  <polygon points="109 52 109 76 33.5 76 22 52 109 52"/>
  <path d="M244,272l-23.5,37-24.5-37v54h-8v-71c3,.2,6.8-1,9,1.5l23.5,37.5,23.5-37.5c2.2-2.3,7.1-2.3,9,0v68c-2,2.3-7,2.3-9,0v-52.5Z"/>
  <polygon points="584 6 592.8 6.2 616.5 44 639.2 6.2 648 6 648 76 640 76 640 22 616.5 59 592 22 592 76 584 76 584 6"/>
  <path d="M561,205.5c-2.7,19-26.1,24.3-40.3,14.3-5.8-4.1-3.9-5.7.8-9.7,14.2,12.8,34.1,7,30.5-14.2-18.9,16.2-42.5-4.1-35.7-26.2,5.1-16.6,24.3-22.7,36.7-9.8v-6s8,0,8,0v51.5ZM535.7,161.2c-17.9,2.9-15.2,34.8,4.7,32.7s9.6-3.5,10.9-6.2,1.2-16.4.7-19.2c-1-5.5-11.3-8.1-16.2-7.3Z"/>
  <path d="M207.5,380c26.8,2.8,30.6,33.7,5.5,41.5.1,2.8,14.8,21.2,17.1,25.9s1.3,2.1.9,3.6c-3-.3-7,.9-9.6-.9-5-3.6-12.8-23.5-17.9-27.1s-5-.8-7.6-.9v29h-8v-71c6.3.5,13.3-.7,19.5,0ZM196,389v23.5c6.3,3.5,20.2,2,23.9-5.1s1.5-11.8-2.3-15.4-4.7-3-5-3h-16.5Z"/>
  <path d="M196,130v29.5l1.5,1.5h33.5v-29.5c2-2.3,7-2.3,9,0v69.5c-3-.3-6.9,1.1-9-1.5v-30.5h-35v32h-8v-71h8Z"/>
  <path d="M343,0v74.5l-1.7,1.3-6.3.2-.5-6c-10.6,11.9-29.3,7.4-35.4-6.6-10-23.1,14.3-46.4,34.9-29.4V0h9ZM317.7,36.2c-18.2,2.9-15.9,34.9,4.6,32.7s9.7-3.9,11.1-7,.9-17.1-.4-19.5c-2.7-4.8-10.1-7-15.3-6.2Z"/>
  <path d="M374,250v74.5l-1.7,1.3-6.3.2-.5-6c-10.6,11.6-29.3,7.5-35.4-6.6-9.9-23.1,14.2-46.7,34.9-29.4v-34h9ZM348.7,286.2c-18.4,3-15.8,34.8,4.7,32.7s9.7-3.9,11.1-7,1-17.2-.9-20c-3.2-4.8-9.4-6.6-14.8-5.7Z"/>
  <path d="M827,451l-8.5-1-6.4-17.4-31-.5-7.1,18.4c-1.6.9-8.9.9-9-1l28-69c2.5-.8,6.3-1.3,7.9,1.1l26.1,69.4ZM808,424l-11.5-31-11.5,31h23Z"/>
  <path d="M699,201c-2.5-.3-6.7.9-8.5-1s-5-14.5-6.6-17.9l-31,.5-7.1,18.2-8.8.2c3.7-8,25-69.6,28.7-70.8s5.7-.6,6.8.8l26.5,70ZM680,174l-11.5-31-11.5,31h23Z"/>
  <path d="M314,446v26.5c-2,2.3-7,2.3-9,0v-67l1.7-1.3,6.3-.2.5,6c12.6-14.3,34.6-5.3,37.2,12.8,3.2,22.4-18.1,37.8-36.7,23.2ZM323.7,411.2c-2.6.5-8.8,5-9.5,7.5s-.6,16.6.7,18.8c4.6,8.2,18.2,8.4,24,.9,9.2-11.9.5-30.5-15.3-27.3Z"/>
  <path d="M673,250v76h-7s-.5-6-.5-6c-8.7,7.7-18.6,9.5-28.4,2.4-24.2-17.3,1.5-60.9,27.9-38.4v-34h8ZM647.7,286.2c-15.5,3.1-16,29.8,1,32.5s13.5-2.1,15.5-7,1.4-16.5-.2-19.3c-2.8-4.9-10.9-7.3-16.3-6.2Z"/>
  <path d="M435,375v34c11.4-10.3,29-6.8,35,7.5,10.1,23.8-15.1,47.1-35.5,28.5l-.5,6h-7v-76h8ZM445.7,411.2c-11.7,1.9-12.2,13.4-10.7,23.2s14.3,11.5,21.3,7.4c14.2-8.3,7.5-33.6-10.6-30.6Z"/>
  <path d="M796,321v28h-8v-70h8s0,6,0,6c20.7-19.8,47.2,6.6,34.5,30.1-5.2,9.6-17,14.4-27.2,10.1s-4.4-3.6-7.3-4.2ZM806.7,286.2c-11.3,2-12.4,13.7-10.7,23.2s9.9,10,15.3,9.5c20.2-1.9,17.9-36.8-4.6-32.7Z"/>
  <path d="M937.8,129.3c9.8-.7,20.4,2.8,27.1,10.4l-4.6,5.3c-23.9-19.3-53,2-43.6,30.9,6.7,20.9,29.4,22.7,44.6,9.3l4.6,4.5c-14.2,18.6-43.7,15.2-55.1-5-12.7-22.5-.2-53.5,27-55.4Z"/>
  <path d="M727.1,311.1l6.9-3.1c3,14,28.2,14.2,28.1-.5-.2-15.3-34.8-12.9-33.1-36,1.5-20.1,30.6-22.6,39.8-7l-5.4,4.3c-1.4.1-4.2-3.4-6.3-4.4-10.1-5.3-22.5.3-18.6,12.6,2.7,8.4,29.3,11.3,31.5,25.5,4.4,28.4-36.2,32.8-42.9,8.5Z"/>
  <path d="M247,56c4.5,15.1,19,16.3,30.4,7.1l4.6,5.3c-16.7,17.2-44.4,6.6-43-17.9,1.5-25.6,36.2-31.1,44.1-7s3.5,12.6.4,12.6h-36.5ZM276,48c-1.7-16.1-26.3-16.1-28,0h28Z"/>
  <path d="M368,56c4.5,15.1,19,16.3,30.4,7.1l4.6,5.3c-14.7,15.8-41.5,8.2-43-13.8-2-29.4,37.4-37.2,44.7-8.7.5,1.8,2.6,10.2-.2,10.2h-36.5ZM397,48c-1.7-16.1-26.3-16.1-28,0h28Z"/>
  <path d="M1252,181h-37c2.5,14.5,20.7,17,29.5,6l5.5,5.5c-12.9,16.1-40.5,10.3-43-11-4.3-37.8,48.9-37.7,45-.5ZM1244,173c-3.7-16.2-25.2-16-29,0h29Z"/>
  <path d="M290,430h-37c.8,15.4,20.8,18.2,29.5,7,12.7,8-8.6,15.4-15.9,14.9-26.3-1.7-30.6-40.5-6.9-47.7,18.4-5.6,30.9,7.9,30.2,25.7ZM282,423c-3.6-16-26.3-16.4-29,0h29Z"/>
  <path d="M1095,451v-6c-3.2.6-4.5,3.4-7.6,4.9-11.9,5.5-27.1-2.1-25.3-16.3,1.8-14,22.1-16,31.9-9.6,1-16.5-14.3-14-25.4-9.9-6.8-7.8,2.3-9.9,9.1-10.8,12.9-1.7,23.8,3.3,25.2,17.3.5,5.4.9,23.2,0,28s-.3,2-1.6,2.4h-6.4ZM1093.9,430.1c-6.7-3.9-26.4-3.8-23.2,7.6,3.3,12.1,27.8,5.7,23.2-7.6Z"/>
  <path d="M316,305h-36.5l-1.1,2.1c4.8,14.2,19.4,14.7,30,6l4.6,5.4c-13.3,14.6-39.6,8.7-42.8-11.2-5.8-36.6,47.2-40.1,45.8-2.3ZM307,298c-1.7-16-26.5-16.3-28,0h28Z"/>
  <path d="M546,320c-10.4,12.5-35.3,6.1-32.8-11.2,2-13.9,21.7-16.2,31.8-9.8,2.2-15.3-15-15.5-24.5-9.1l-3.4-7.8c12.6-6.7,34.9-6.3,36.9,11.4s.9,25.2,0,30-4.3,2.9-7.1,2.1l-.9-5.6ZM544.9,305.1c-6.2-3.1-22.6-4.6-22.9,5.4-.5,14.4,27.9,9.6,22.9-5.4Z"/>
  <path d="M455,326v-6c-39.4,26.9-46.3-39.4-1.5-21,3.6-15.1-14.8-15.6-24-9.1l-3.4-7.8c13.5-6.9,34.8-6.2,36.9,12.4s.9,24.3,0,29-.3,2-1.6,2.4h-6.4ZM453.9,305.1c-5.1-2.7-20.6-4.3-22.6,2.6-5.1,17,27.6,14.2,22.6-2.6Z"/>
  <path d="M498,76h-7s-.5-6-.5-6c-1.6,0-4.2,3.4-6.4,4.6-11,5.6-25.8.2-26.1-13s19.9-18.4,32.1-12.5c.6-15.9-15.5-14.9-26-9l-2.8-6.5c9-7.3,27-8.1,34.2,2.6s2.6,4.2,2.6,4.4v35.5ZM468.3,66.7c6.8,6.8,26.9-1.3,21.2-10.7s-14.7-3.7-18.3-2.2-6.9,9-3,13Z"/>
  <path d="M942,65l14.5-35,8.5-1c.2,1.6-.5,3-1,4.5-4.5,14.1-16.6,46.3-23.5,58.5s-11.8,10-19.3,6.2,0-7.9,1.3-8.2,5,4,9.1.6,6.4-12.8,6.3-15.1l-21-46.6,9.5,1,15.5,35Z"/>
  <polygon points="228 6 227.8 12.3 226.5 14 196 14 196 34.5 197.5 36 226 36 225.8 42.3 224.5 44 196 44 196 76 188 76 188 6 228 6"/>
  <path d="M652.7,403.2c30-4.8,38.8,38.5,12.3,47.2-33.9,11.1-44.1-42.2-12.3-47.2ZM646.3,439.7c8,7.9,23.3,4,25.4-7.4,5.2-28.2-33-28.2-29.8-1.7.3,2.6,2.5,7.3,4.4,9.1Z"/>
  <path d="M865.7,278.2c29.7-4.5,38.3,37.8,13,47-34.2,12.4-45.7-42-13-47ZM880.7,314.7c8.4-8.4,4.7-26.9-8.3-28.6-23.3-2.9-22.9,33-2.9,33,3.3,0,8.9-2.1,11.2-4.4Z"/>
  <path d="M277.8,153.3c32.8-4.4,36.8,46.9,4.7,48.8-30.3,1.7-34.6-44.7-4.7-48.8ZM277.7,161.2c-15.9,2.9-16.3,29.7,1,32.5,23.3,3.7,23.4-36.9-1-32.5Z"/>
  <path d="M460,154h8s0,6,0,6c7.1-8.7,20.9-9.6,28-.5s4,7.4,4,9v31c-2,2.3-7,2.3-9,0v-31c0-3.4-6-7.3-9.5-7.6s-12.5,3.9-12.5,6.6v32c-2,2.3-7,2.3-9,0v-45.5Z"/>
  <path d="M329,154v32.5c0,.3,2.5,4.5,3,5,5.7,5,18,1.8,19-5.9s-1.1-20.5,0-29.9l1.5-1.5h7.4c0-.1,0,45.4,0,45.4l-1.7,1.3-6.3.2-1-7c-5.7,12.2-25.2,9.3-29.5-3s-2.5-28.9-1.5-34.5.3-2,1.6-2.4h7.4Z"/>
  <path d="M1144,154h7.4c0,.1,1.5,1.6,1.5,1.6l-.3,44.4-7.6.9-1-7c-4.9,10-19.4,10.3-26.5,2s-4.5-7.7-4.5-9.5v-32.5h7.4c0,.1,1.5,1.6,1.5,1.6,2.3,11.1-6.9,41,12.6,38.3s9.6-4.9,9.6-6.5v-33.5Z"/>
  <path d="M738,76h-8v-31.5c0-4-6.3-8.6-10.5-8.6s-12.5,4.9-12.5,8.6v31.5h-8V29h8s.5,6,.5,6c5.9-8.3,18.1-9.4,25.5-2.5s5,6.8,5,8v35.5Z"/>
  <path d="M612,326h-8v-29.5c0-1.3-2.3-6.4-3.4-7.6-4.4-4.6-12.2-3.6-16.5.7s-3.1,3.7-3.1,3.9v32.5h-8v-47l7.1.4,1.4,4.6c6.4-7.3,18.9-8.2,25.9-.9s4.6,7.3,4.6,8.4v34.5Z"/>
  <path d="M375,404v31.5c0,4.5,7.1,8.8,11.5,8.6s11.5-5.5,11.5-8.6v-31.5h8v47l-7.1-.4-.9-5.6c-6.8,7.7-19.8,9.7-27,1.5s-4-6.6-4-7v-35.5h8Z"/>
  <path d="M989,154v31.5c0,6.8,10.9,10.3,16.9,6.9s6.1-5.5,6.1-5.9v-32.5h8v47l-7.1-.4-.9-5.6c-6.7,7.9-19.9,9.6-27,1.5s-4-6.6-4-7v-35.5h8Z"/>
  <path d="M849,404v30.5c0,4.4,6.1,9.4,10.5,9.6s12.5-5.1,12.5-7.6v-32.5h8v47l-7.1-.4-.9-5.6c-6.5,6-12,8.6-20.8,5.3s-10.2-7.6-10.2-11.8v-34.5h8Z"/>
  <path d="M812.7,66.7c1-1.2,1.5-3.5,1.1-5-2-7.6-25.4-3.6-26.9-18.2-1.9-17.9,24.8-19.6,34-8l-5.5,5.3c-4-5.2-21.5-8.2-20.5,1.6.7,7.3,24.2,4.8,26.8,16.2s-14.1,21-26.5,16.5c-6.8-2.5-15.2-7.4-5.7-13.1,1.6-.3,4.2,3.7,6,4.8,4,2.4,13.8,3.5,17.1-.1Z"/>
  <path d="M808.7,153.2c6.9-1.1,15.5,1.2,20.2,6.4l-4.4,6.3c-4.3-6-23.4-7.7-20.3,2.4,1.8,6.1,24.1,4.3,26.6,15.4,3.7,16.1-14.8,21.1-27.2,16.2-6.8-2.7-14.2-7.1-5-12.8,4.7,3,6.7,6.5,12.9,7s13.8-2,11-8-28.6-2.3-26.5-21.5c.6-5.9,7.2-10.3,12.8-11.2Z"/>
  <path d="M387.3,163.3c-7.6,8,14.3,11,18.1,12.9,7.5,3.7,11,11.4,6.1,18.8-7.1,10.7-28.7,8-35.4-2.6l4.6-5.3c6.2,4.6,10.2,8.4,18.6,6.7s8.4-6.3,4-9.8-22.1-2.3-24.9-13.9c-4.4-18.4,24.4-22.1,33.5-9.6l-5.5,5.5c-3.4-5-15.2-7-19.2-2.7Z"/>
  <path d="M930.7,446.7c-9.1,9.1-26.9,5.1-34.6-4.2l5.6-5.4c1.6-.3,4.2,3.7,6,4.8,10.6,6.2,25.2-2.1,14.7-8.7s-10.7-2.5-15.4-4.6c-18.9-8.8-4.5-31.8,17.7-23.7s10.2,5.2,2.7,10c-5.1-2.4-14-6.8-18.9-1.9-8.3,8.3,12.3,10.8,16.5,12.6,8.6,3.6,12.9,14,5.7,21.2Z"/>
  <path d="M702,383.5c1.6-8.1,14.6-12.3,21.3-8.3s.1,4.8-.4,7.8c-3.6-1.8-12.9-1.5-12.9,3.5v17.5l12,.6v7.4s-12,0-12,0v39h-8v-39l-10-.6v-7.4s10,0,10,0c.8-6-1.1-14.9,0-20.5Z"/>
  <path d="M963,265v14h14v8h-14v28.5c0,3.2,9.6,4.4,12,1.5l3,6.5c-6.9,5.2-17.2,4.5-21.8-3.2s-2.2-4.6-2.2-4.8v-28.5l-9-.6v-7.4s9,0,9,0v-14h9Z"/>
  <path d="M964,390v14h14v8h-14v27.5c0,4.3,8.5,5.6,11.5,2.7l3,6.8c-27.4,12-23.8-19.8-23.6-37l-8.1-.4c-1.6-1.1-1.6-6.8.7-7.4h7.4c0-.1.9-13.7.9-13.7l8.1-.4Z"/>
  <path d="M565.8,403.3c8.4-1.2,16.8,1.8,22.2,8.2l-6.3,4.3c-15.6-14.1-35.6,4.4-24.5,21.5s18.2,7.3,26.2.7l4.6,4.6c-10,13.8-32.7,11.7-39.8-4.3s1-32.8,17.6-35.1Z"/>
  <path d="M852,15v14l14.1.4.9,7.6h-15v26.5c0,3.4,4.1,5.9,7.4,5.5s4.1-4.7,7.5,3.7c-3.4,6.4-14.8,4.7-19.4.3s-3.5-5.1-3.5-5.5v-30.5l-9-.6v-7.4s9,0,9,0v-14h8Z"/>
  <path d="M1083,140v14l14.1.4.9,7.6h-15v27.5c0,4.6,9,5.4,12,2.9,7.6,8.5-3.7,10.6-10.6,8.6s-9.4-5.1-9.4-8.5v-30.5l-9-.6v-7.4s9,0,9,0v-14h8Z"/>
  <path d="M766,140v14h14v8h-14v27.5c0,4.6,9,5.4,12,2.9,8.1,9-5.4,10.9-12.2,8.3s-7.8-5.7-7.8-8.2v-30.5l-9-.6v-7.4s9,0,9,0v-14h8Z"/>
  <rect x="519" width="8" height="76"/>
  <rect x="1041" y="125" width="8" height="76"/>
  <rect x="490" y="375" width="8" height="76"/>
  <path d="M1171,155.5l1.7-1.3,6.3-.2.5,6c5.3-6.1,11.6-8.5,19.5-6l-3.1,8c-4.5-3.6-15.9,1.9-15.9,6.5v31c-2,2.3-7,2.3-9,0v-44Z"/>
  <path d="M909,279h8s0,6,0,6c5.3-5.3,11.2-9,19-5.9l-2,8c-3.8-3.8-16,2.3-16,5.5v32c-2,2.3-7,2.3-9,0v-45.5Z"/>
  <path d="M421,29h8s0,6,0,6c5.3-5.3,11.5-9.4,19-5.4l-2.1,7.4c-5.1-2.6-13.1-.1-15.5,5s1,24.9-.7,32.3l-1.5,1.5h-7.4c0,.1,0-46.9,0-46.9Z"/>
  <path d="M882,30.5l1.7-1.3,6.3-.2.5,6c5.2-6.7,11.4-8.1,19.5-6l-3.1,8c-3.8-3.8-15.9,2.3-15.9,5.5v32c-2,2.3-7,2.3-9,0V30.5Z"/>
  <path d="M994,404h8s0,6,0,6c4.9-5,12.1-10,19.1-5.4l-3,6.9c-23.4-4.4-12.6,24.1-15.2,37.8l-1.5,1.5h-7.4c0,.1,0-46.9,0-46.9Z"/>
  <path d="M713,154l7.1.4,1.4,5.6c3.7-6.9,11.3-8.2,18.5-6l-2.9,7.6c-4.4-2.7-16.1,2.2-16.1,6.9v32.5h-8v-47Z"/>
  <polygon points="440 154 440 201 431.4 200.1 431.1 155.6 432.6 154.1 440 154"/>
  <path d="M1044,404v45.5c-2,2.3-7,2.3-9,0v-44c2.1-2.6,6-1.2,9-1.5Z"/>
  <path d="M520,404c3,.3,6.9-1.1,9,1.5v44c-2,2.3-7,2.3-9,0v-45.5Z"/>
  <path d="M670,30.5c.7-2.2,7.7-2.3,9,0v44c-2,2.3-7,2.3-9,0V30.5Z"/>
  <rect x="396" y="279" width="8" height="47"/>
  <rect x="759" y="29" width="8" height="47"/>
  <path d="M583,217l-7-2.6c-.2-1.2,5.9-18.4,7-21s-.6-1.5,1.6-1.4,6.1,1,6.4,2.6l-8,22.4Z"/>
  <path d="M851,217l-7-2.6c-.2-1.1,5.9-18.5,7-21s-.6-1.5,1.6-1.4,6.1,1,6.4,2.6l-8,22.4Z"/>
  <path d="M1264,215l7-23,7,1.5c1.2.7,1,1.6.8,2.8s-6.7,18.9-7.4,19.8l-1.8.8-5.7-1.9Z"/>
  <path d="M1037.7,384.2c9.7-2.9,10.3,12.1.8,10.8s-6.3-9.2-.8-10.8Z"/>
  <path d="M433.7,134.2c9.9-2.8,10.3,13.7,0,10.6-5-1.5-4.9-9.2,0-10.6Z"/>
  <path d="M760.7,9.2c10-2.9,10.5,13.8,0,10.6-5.2-1.5-4.3-9.4,0-10.6Z"/>
  <path d="M397.7,259.2c10.3-3.2,10.3,13.8,0,10.6-4.5-1.4-4.5-9.2,0-10.6Z"/>
  <path d="M520.2,393.8c-4-4,.5-13.2,7.3-8.8,7.2,4.6-2.1,14-7.3,8.8Z"/>
  <path d="M678.8,18.8c-4,4-13.2-.5-8.8-7.3,4.6-7.2,14,2.1,8.8,7.3Z"/>
</svg>