<?xml version="1.0" encoding="UTF-8"?>
<svg id="Layer_1" xmlns="http://www.w3.org/2000/svg" version="1.1" viewBox="0 0 1920 488">
  <!-- Generator: Adobe Illustrator 29.6.1, SVG Export Plug-In . SVG Version: 2.1.1 Build 9)  -->
  <path d="M58.2,282.8v205.2H0V0h220.6c99.6,0,153.8,52.1,153.8,141.1s-55.5,141.7-153.8,141.7H58.2ZM58.2,52.1v177.8h155.1c64.8,0,100.9-31.4,100.9-88.9s-35.4-88.9-100.3-88.9H58.2Z"/>
  <path d="M313.5,409.1h66.2v78.9h-66.2v-78.9Z"/>
  <path d="M415.2,0h58.2v488h-58.2V0Z"/>
  <path d="M855.7,396.4V0h56.8v488h-60.8L571.6,73.5v414.5h-56.8V0h78.2l262.7,396.4Z"/>
  <path d="M933.3,409.1h66.2v78.9h-66.2v-78.9Z"/>
  <path d="M1018.8,0h337.6v52.8h-279.5v157.1h257.4v54.8h-257.4v169.8h285.5v53.5h-343.6V0Z"/>
  <path d="M1381.8,409.1h66.2v78.9h-66.2v-78.9Z"/>
  <path d="M1657.9,0h68.2l193.9,488h-60.8l-55.5-138.4h-224.6l-55.5,138.4h-58.2L1657.9,0ZM1782.3,296.2l-90.9-228-90.9,228h181.8Z"/>
</svg>